<svg width="128" height="127" viewBox="0 0 128 127" fill="none" xmlns="http://www.w3.org/2000/svg">
    <g clip-path="url(#clip0_348_6930)">
        <path
            d="M77.4626 114.176V85.0974C85.4136 72.704 92.9506 60.3708 100.081 48.0979L107.294 35.3506C112.753 43.5652 115.953 53.4136 115.953 64C115.953 87.9887 99.6066 108.228 77.4626 114.176ZM12.0471 64C12.0471 53.6245 15.1115 43.9567 20.3746 35.84L27.4071 48.2711C34.5976 60.6645 42.1647 73.0579 50.1158 85.4438V114.048C28.1901 107.957 12.0471 87.8381 12.0471 64ZM87.1605 17.5134C84.3821 23.3864 81.4456 29.2367 78.3209 35.0494C73.8786 43.3318 69.1953 51.6066 64.2786 59.8814C59.3769 51.6066 54.7614 43.3318 50.4471 35.0494L41.6075 17.1294C48.3915 13.8767 55.9887 12.0471 64 12.0471C72.32 12.0471 80.1807 14.0273 87.1605 17.5134ZM113.024 22.9195C109.651 18.8988 105.788 15.3073 101.534 12.2127C90.9854 4.54024 78.0198 0 64 0C49.9802 0 37.0146 4.54024 26.4584 12.2127C22.0612 15.4127 18.0706 19.1473 14.6071 23.3412C5.48894 34.4094 0 48.5722 0 64C0 94.7049 21.7449 120.425 50.6353 126.584C54.9496 127.503 59.4146 128 64 128C68.4348 128 72.7567 127.548 76.9431 126.682C106.052 120.681 128 94.8555 128 64C128 48.3765 122.36 34.048 113.024 22.9195Z"
            fill="white" />
    </g>
    <defs>
        <clipPath id="clip0_348_6930">
            <rect width="128" height="128" fill="white" />
        </clipPath>
    </defs>
</svg>